# xmcd
#
# Track frame offsets:
#	150
#	15055
#	30291
#	43961
#	57762
#	75552
#	88423
#	110945
#	124487
#	139639
#	153288
#
# Disc length: 2381 seconds
#
# Revision: 1
# Processed by: cddbd v1.4PL0 Copyright (c) Steve Scherf et al.
# Submitted via: CDmax 1.9
#
DISCID=88094b0b
DTITLE=The Skeeters
DYEAR=2002
DGENRE=Country
TTITLE0=Rhythm of the World
TTITLE1=Clydesdales
TTITLE2=Country Pop
TTITLE3=God Bless em All
TTITLE4=Can't Get No Lovin'
TTITLE5=Honey Child
TTITLE6=Blues Flowin Freely
TTITLE7=Backwoods
TTITLE8=Late Again
TTITLE9=High Gear
TTITLE10=Texas Day
EXTD=copyright 2002 High Gear Music/ASCAP\nProduced by Johnny Sandlin for Duck
EXTD=Tape Music\nwww.theskeeters.com
EXTT0=
EXTT1=
EXTT2=
EXTT3=
EXTT4=
EXTT5=
EXTT6=
EXTT7=
EXTT8=
EXTT9=
EXTT10=
PLAYORDER=
